<!-- icon666.com - MILLIONS vector ICONS FREE --><svg clip-rule="evenodd" fill-rule="evenodd" stroke-linejoin="round" stroke-miterlimit="2" viewBox="0 0 32 32" xmlns="http://www.w3.org/2000/svg"><g fill="rgb(0,0,0)"><path d="m30.5 9c0-.663-.263-1.299-.732-1.768s-1.105-.732-1.768-.732c-5.154 0-18.846 0-24 0-.663 0-1.299.263-1.768.732s-.732 1.105-.732 1.768v14c0 .663.263 1.299.732 1.768s1.105.732 1.768.732h24c.663 0 1.299-.263 1.768-.732s.732-1.105.732-1.768zm-1 0v14c0 .398-.158.779-.439 1.061-.282.281-.663.439-1.061.439-5.154 0-18.846 0-24 0-.398 0-.779-.158-1.061-.439-.281-.282-.439-.663-.439-1.061 0-3.463 0-10.537 0-14 0-.398.158-.779.439-1.061.282-.281.663-.439 1.061-.439h24c.398 0 .779.158 1.061.439.281.282.439.663.439 1.061z" fill="rgb(0,0,0)" style="fill: rgb(143, 143, 143);"></path><path d="m12.5 11.5c0-.276-.224-.5-.5-.5h-4.984c-.276 0-.5.224-.5.5v3c0 .276.224.5.5.5h4.984c.276 0 .5-.224.5-.5zm-4.984.5v2h3.984v-2z" fill="rgb(0,0,0)" style="fill: rgb(143, 143, 143);"></path><path d="m26.008 11.5c0-.276-.224-.5-.5-.5h-4.983c-.276 0-.5.224-.5.5v3c0 .276.224.5.5.5h4.983c.276 0 .5-.224.5-.5zm-4.983.5v2h3.983v-2z" fill="rgb(0,0,0)" style="fill: rgb(143, 143, 143);"></path><path d="m14.501 18.301v-.78c0-.553.447-1 1-1h.998c.553 0 1 .447 1 1v.78h.781c.553 0 1 .448 1 1v.999c0 .553-.447 1-1 1h-.781v.781c0 .552-.447 1-1 1h-.998c-.553 0-1-.448-1-1v-.781h-.781c-.553 0-1-.447-1-1v-.999c0-.552.447-1 1-1zm-.781 1.999h1.281c.276 0 .5.224.5.5v1.281h.998v-1.281c0-.276.224-.5.5-.5h1.281v-.999h-1.281c-.276 0-.5-.223-.5-.5v-1.28h-.998v1.28c0 .277-.224.5-.5.5h-1.281z" fill="rgb(0,0,0)" style="fill: rgb(143, 143, 143);"></path><path d="m21.5 6c0-.663-.263-1.299-.732-1.768s-1.105-.732-1.768-.732c-1.743 0-4.257 0-6 0-.663 0-1.299.263-1.768.732s-.732 1.105-.732 1.768v1c0 .276.224.5.5.5h10c.276 0 .5-.224.5-.5zm-1 .5v-.5c0-.398-.158-.779-.439-1.061-.282-.281-.663-.439-1.061-.439-1.743 0-4.257 0-6 0-.398 0-.779.158-1.061.439-.281.282-.439.663-.439 1.061v.5z" fill="rgb(0,0,0)" style="fill: rgb(143, 143, 143);"></path><path d="m2 13.5h5c.276 0 .5-.224.5-.5s-.224-.5-.5-.5h-5c-.276 0-.5.224-.5.5s.224.5.5.5z" fill="rgb(0,0,0)" style="fill: rgb(143, 143, 143);"></path><path d="m12 13.5h8.525c.276 0 .5-.224.5-.5s-.224-.5-.5-.5h-8.525c-.276 0-.5.224-.5.5s.224.5.5.5z" fill="rgb(0,0,0)" style="fill: rgb(143, 143, 143);"></path><path d="m25.508 13.5h4.492c.276 0 .5-.224.5-.5s-.224-.5-.5-.5h-4.492c-.276 0-.5.224-.5.5s.224.5.5.5z" fill="rgb(0,0,0)" style="fill: rgb(143, 143, 143);"></path></g></svg>